<svg id="svg" version="1.1" width="400" height="71.09335996005991" viewBox="0 0 400 71.09335996005991" xmlns="http://www.w3.org/2000/svg" xmlns:xlink="http://www.w3.org/1999/xlink" ><g id="svgg"><path id="path0" d="" stroke="none" fill="#000000" fill-rule="evenodd"></path><path id="path1" d="M48.794 1.618 C 49.001 1.658,49.301 1.656,49.460 1.615 C 49.620 1.573,49.450 1.540,49.083 1.542 C 48.717 1.544,48.586 1.578,48.794 1.618 M68.872 6.667 C 68.872 6.987,68.906 7.119,68.948 6.958 C 68.990 6.798,68.990 6.535,68.948 6.375 C 68.906 6.215,68.872 6.346,68.872 6.667 M209.479 17.585 C 208.872 17.706,207.951 17.999,207.432 18.236 C 206.914 18.473,206.448 18.667,206.396 18.667 C 205.598 18.667,201.639 22.261,200.939 23.620 C 200.787 23.916,200.482 24.425,200.260 24.751 C 200.039 25.077,199.809 25.567,199.749 25.839 C 199.689 26.111,199.581 26.333,199.510 26.333 C 199.384 26.333,198.965 27.545,198.733 28.583 C 198.671 28.858,198.556 29.166,198.477 29.268 C 197.929 29.967,197.613 37.237,198.015 39.885 C 198.761 44.800,201.301 49.266,204.630 51.514 C 208.934 54.421,216.074 54.472,220.583 51.627 C 222.053 50.700,224.500 48.241,224.500 47.691 C 224.500 47.586,224.570 47.500,224.656 47.500 C 224.865 47.500,225.926 45.480,226.268 44.429 C 226.420 43.964,226.601 43.508,226.671 43.417 C 226.822 43.217,227.270 41.206,227.526 39.583 C 227.758 38.103,227.861 32.509,227.666 31.886 C 227.586 31.628,227.401 30.678,227.257 29.775 C 227.112 28.873,226.854 27.823,226.683 27.442 C 226.513 27.061,226.318 26.563,226.251 26.333 C 226.053 25.661,224.810 23.333,224.648 23.333 C 224.567 23.333,224.500 23.226,224.500 23.094 C 224.500 22.766,221.950 20.098,221.196 19.637 C 220.859 19.431,220.491 19.173,220.378 19.063 C 220.265 18.953,219.815 18.730,219.378 18.566 C 218.941 18.403,218.433 18.177,218.250 18.063 C 217.175 17.398,211.870 17.108,209.479 17.585 M116.255 17.777 C 115.524 17.909,114.886 18.079,114.838 18.154 C 114.790 18.230,114.487 18.347,114.167 18.414 C 111.744 18.923,107.508 22.181,106.156 24.576 C 105.870 25.084,105.575 25.537,105.501 25.583 C 105.427 25.628,105.232 26.041,105.067 26.499 C 104.902 26.958,104.718 27.333,104.657 27.333 C 104.597 27.333,104.379 27.990,104.174 28.792 C 103.969 29.594,103.733 30.400,103.651 30.583 C 103.017 31.993,103.024 41.024,103.659 41.500 C 103.721 41.546,103.866 42.033,103.983 42.583 C 104.172 43.478,105.361 46.287,105.640 46.499 C 105.700 46.546,105.900 46.879,106.083 47.240 C 106.842 48.734,111.085 52.328,112.098 52.334 C 112.182 52.335,112.475 52.454,112.750 52.599 C 115.535 54.069,125.521 53.993,127.518 52.487 L 127.893 52.203 127.501 50.004 C 127.135 47.956,127.084 47.811,126.762 47.884 C 125.562 48.154,124.192 48.546,123.850 48.717 C 122.903 49.190,118.081 48.958,116.461 48.362 C 113.516 47.278,111.195 45.058,110.243 42.417 C 110.078 41.958,109.886 41.508,109.818 41.415 C 108.931 40.222,108.958 31.030,109.852 29.902 C 109.931 29.803,110.109 29.401,110.247 29.009 C 111.287 26.061,114.085 23.528,117.300 22.625 C 119.824 21.915,125.219 22.340,126.428 23.343 C 126.810 23.660,126.982 23.313,127.550 21.083 C 128.178 18.615,128.193 18.794,127.333 18.504 C 126.921 18.364,126.543 18.197,126.494 18.132 C 126.063 17.559,118.843 17.309,116.255 17.777 M239.833 17.616 C 237.660 17.678,233.830 18.038,233.737 18.188 C 233.687 18.268,233.464 18.333,233.240 18.333 L 232.833 18.333 232.833 35.750 L 232.833 53.167 235.583 53.167 L 238.333 53.167 238.333 45.732 L 238.333 38.297 240.208 38.383 C 244.852 38.594,246.589 39.904,247.329 43.750 C 247.435 44.300,247.624 45.087,247.748 45.500 C 247.873 45.913,248.099 46.887,248.251 47.667 C 248.545 49.177,249.433 52.390,249.690 52.875 C 249.842 53.161,255.264 53.348,255.535 53.076 C 255.585 53.026,255.418 52.408,255.165 51.701 C 254.660 50.293,254.002 47.793,253.487 45.333 C 253.305 44.462,253.049 43.413,252.919 43.000 C 252.789 42.587,252.568 41.867,252.429 41.399 C 251.854 39.467,250.544 37.663,249.120 36.842 L 248.323 36.382 249.042 36.108 C 249.437 35.957,249.978 35.665,250.244 35.458 C 251.048 34.834,252.080 33.925,252.141 33.786 C 252.173 33.713,252.366 33.451,252.571 33.202 C 253.908 31.580,254.250 30.403,254.250 27.417 C 254.250 23.562,252.922 20.815,250.454 19.565 C 250.158 19.416,249.804 19.196,249.667 19.078 C 249.529 18.960,248.967 18.735,248.417 18.578 C 247.867 18.421,247.342 18.235,247.250 18.165 C 246.848 17.854,242.565 17.537,239.833 17.616 M338.083 17.688 C 335.733 17.796,334.762 17.907,332.957 18.277 C 332.293 18.413,332.321 17.572,332.371 36.083 L 332.417 53.083 335.208 53.129 L 338.000 53.175 338.000 45.736 L 338.000 38.297 339.875 38.378 C 340.906 38.423,341.938 38.504,342.167 38.560 C 342.396 38.616,342.808 38.709,343.083 38.767 C 345.009 39.176,346.512 41.208,347.079 44.167 C 347.228 44.946,347.414 45.733,347.492 45.917 C 347.570 46.100,347.805 47.112,348.014 48.167 C 348.223 49.221,348.439 50.121,348.494 50.167 C 348.549 50.212,348.692 50.663,348.811 51.167 C 348.930 51.671,349.102 52.327,349.193 52.625 L 349.359 53.167 352.253 53.167 C 355.597 53.167,355.433 53.256,354.837 51.750 C 354.583 51.108,354.240 49.946,354.075 49.167 C 353.910 48.387,353.727 47.712,353.669 47.667 C 353.611 47.621,353.368 46.683,353.130 45.583 C 351.949 40.135,350.803 37.855,348.700 36.767 C 348.025 36.418,348.026 36.413,348.875 36.024 C 350.599 35.232,352.667 33.036,353.251 31.376 C 353.404 30.940,353.613 30.433,353.714 30.250 C 354.146 29.471,354.073 25.805,353.595 24.272 C 352.721 21.467,350.581 19.275,348.041 18.580 C 347.514 18.437,346.962 18.253,346.814 18.172 C 346.010 17.733,341.984 17.510,338.083 17.688 M135.667 17.854 C 134.796 17.931,133.953 18.071,133.794 18.164 C 133.635 18.257,133.392 18.333,133.255 18.333 C 132.831 18.333,132.824 18.644,132.871 36.083 L 132.917 53.083 135.708 53.129 L 138.500 53.175 138.500 46.379 L 138.500 39.583 141.208 39.568 C 142.698 39.560,144.309 39.471,144.788 39.370 C 146.375 39.038,147.736 38.657,147.827 38.520 C 147.876 38.446,148.104 38.337,148.333 38.279 C 148.563 38.221,149.006 38.003,149.320 37.795 C 149.633 37.587,150.028 37.334,150.198 37.233 C 150.882 36.826,152.833 34.807,152.833 34.506 C 152.833 34.424,152.952 34.239,153.096 34.094 C 153.393 33.798,154.000 32.179,154.000 31.685 C 154.000 31.507,154.094 31.330,154.208 31.292 C 154.478 31.202,154.511 25.218,154.242 25.036 C 154.146 24.970,153.970 24.579,153.851 24.167 C 153.126 21.650,150.427 19.075,147.909 18.500 C 147.455 18.396,146.957 18.244,146.803 18.161 C 145.914 17.685,139.521 17.509,135.667 17.854 M295.340 17.796 C 292.489 17.847,292.581 17.809,292.412 19.034 C 292.352 19.473,292.242 19.870,292.169 19.915 C 292.096 19.961,291.871 20.917,291.670 22.040 C 291.469 23.164,291.201 24.383,291.075 24.750 C 290.948 25.117,290.723 26.092,290.574 26.917 C 290.426 27.742,290.239 28.567,290.160 28.750 C 290.081 28.933,289.858 29.908,289.665 30.917 C 289.471 31.925,289.209 33.087,289.082 33.500 C 288.955 33.912,288.730 34.962,288.584 35.833 C 288.437 36.704,288.254 37.534,288.177 37.677 C 288.100 37.820,287.871 38.982,287.669 40.260 C 287.467 41.538,287.259 42.696,287.207 42.833 C 287.155 42.971,287.100 43.121,287.086 43.167 C 287.071 43.212,287.000 43.682,286.927 44.211 C 286.744 45.533,286.561 45.537,286.420 44.220 C 286.354 43.609,286.239 42.991,286.163 42.847 C 286.087 42.702,285.866 41.533,285.671 40.250 C 285.476 38.967,285.251 37.767,285.171 37.583 C 285.092 37.400,284.857 36.275,284.649 35.083 C 284.441 33.892,284.225 32.879,284.167 32.833 C 284.110 32.787,283.890 31.775,283.679 30.583 C 283.467 29.392,283.237 28.342,283.167 28.250 C 283.097 28.158,282.866 27.108,282.654 25.917 C 282.441 24.725,282.207 23.725,282.134 23.694 C 282.060 23.664,282.000 23.503,282.000 23.337 C 282.000 22.927,281.358 19.684,281.175 19.167 C 281.094 18.938,280.982 18.544,280.927 18.292 L 280.827 17.833 278.016 17.833 L 275.204 17.833 275.111 18.292 C 275.059 18.544,274.788 19.706,274.508 20.875 C 274.229 22.044,273.781 23.919,273.513 25.042 C 273.245 26.165,272.790 28.058,272.501 29.250 C 272.212 30.442,271.770 32.317,271.518 33.417 C 271.266 34.517,271.013 35.529,270.955 35.667 C 270.897 35.804,270.690 36.779,270.496 37.833 C 270.302 38.887,270.083 39.864,270.010 40.003 C 269.938 40.143,269.710 41.230,269.504 42.420 C 268.855 46.167,268.791 46.246,268.442 43.726 C 268.279 42.547,268.080 41.433,267.999 41.250 C 267.919 41.067,267.689 39.869,267.489 38.589 C 267.288 37.309,267.063 36.146,266.989 36.006 C 266.914 35.865,266.696 34.813,266.505 33.667 C 266.313 32.521,266.090 31.433,266.007 31.250 C 265.925 31.067,265.694 29.946,265.494 28.760 C 265.294 27.574,265.068 26.487,264.991 26.343 C 264.915 26.200,264.693 25.150,264.497 24.008 C 264.302 22.867,264.084 21.817,264.012 21.675 C 263.940 21.533,263.746 20.610,263.580 19.625 L 263.279 17.833 260.306 17.833 C 257.469 17.833,257.333 17.848,257.333 18.158 C 257.333 18.621,257.659 20.188,257.837 20.583 C 257.919 20.767,258.152 21.779,258.355 22.833 C 258.557 23.887,258.768 24.787,258.823 24.833 C 258.877 24.879,259.102 25.817,259.323 26.917 C 259.543 28.017,259.784 29.029,259.857 29.167 C 259.930 29.304,260.146 30.242,260.336 31.250 C 260.527 32.258,260.752 33.233,260.837 33.417 C 260.981 33.726,261.163 34.524,262.258 39.667 C 262.483 40.721,262.738 41.733,262.826 41.917 C 262.915 42.100,263.152 43.112,263.355 44.167 C 263.557 45.221,263.769 46.121,263.825 46.167 C 263.881 46.212,264.140 47.358,264.401 48.711 C 264.662 50.065,264.930 51.207,264.997 51.248 C 265.065 51.290,265.168 51.675,265.227 52.104 C 265.397 53.345,265.366 53.333,268.417 53.333 C 271.517 53.333,271.377 53.398,271.675 51.833 C 271.788 51.237,271.938 50.675,272.008 50.583 C 272.078 50.492,272.298 49.629,272.496 48.667 C 272.695 47.704,272.901 46.804,272.954 46.667 C 273.128 46.217,273.156 46.103,273.551 44.239 C 273.766 43.225,273.991 42.316,274.051 42.220 C 274.110 42.123,274.316 41.303,274.507 40.397 C 274.699 39.491,274.922 38.600,275.002 38.417 C 275.083 38.233,275.273 37.521,275.425 36.833 C 275.576 36.146,275.815 35.133,275.955 34.583 C 276.095 34.033,276.381 32.796,276.591 31.833 C 276.800 30.871,277.089 29.558,277.231 28.917 C 277.374 28.275,277.545 27.300,277.611 26.750 L 277.732 25.750 277.869 26.417 C 277.945 26.783,278.191 28.283,278.415 29.750 C 278.640 31.217,278.895 32.567,278.983 32.750 C 279.071 32.933,279.300 33.983,279.492 35.083 C 279.685 36.183,279.911 37.233,279.996 37.417 C 280.080 37.600,280.305 38.612,280.496 39.667 C 280.687 40.721,280.912 41.733,280.997 41.917 C 281.082 42.100,281.308 43.075,281.500 44.083 C 281.692 45.092,281.914 46.067,281.994 46.250 C 282.074 46.433,282.306 47.483,282.510 48.583 C 282.714 49.683,282.935 50.658,283.002 50.750 C 283.068 50.842,283.216 51.423,283.330 52.042 L 283.538 53.167 286.485 53.167 L 289.433 53.167 289.789 51.708 C 289.984 50.906,290.344 49.425,290.588 48.417 C 290.832 47.408,291.101 46.433,291.186 46.250 C 291.271 46.067,291.526 45.092,291.752 44.083 C 292.377 41.303,293.011 38.789,293.182 38.417 C 293.266 38.233,293.515 37.296,293.735 36.333 C 293.955 35.371,294.374 33.683,294.666 32.583 C 294.957 31.483,295.410 29.721,295.672 28.667 C 295.934 27.613,296.419 25.700,296.751 24.417 C 297.082 23.133,297.502 21.446,297.684 20.667 C 297.866 19.887,298.087 19.120,298.174 18.961 C 298.788 17.843,298.535 17.739,295.340 17.796 M362.917 17.849 C 362.092 17.934,361.244 18.077,361.034 18.168 C 360.823 18.259,360.467 18.333,360.242 18.333 L 359.833 18.333 359.833 35.740 C 359.833 48.789,359.882 53.177,360.027 53.267 C 361.053 53.901,373.545 53.403,375.250 52.660 C 375.433 52.580,375.958 52.407,376.417 52.275 C 379.473 51.393,382.908 48.603,384.405 45.787 C 384.615 45.393,384.873 44.923,384.979 44.744 C 385.403 44.026,386.061 41.998,386.356 40.500 C 386.528 39.629,386.738 38.617,386.824 38.250 C 387.022 37.400,387.031 32.185,386.835 31.557 C 386.754 31.297,386.563 30.359,386.412 29.475 C 386.261 28.590,386.048 27.727,385.938 27.558 C 385.829 27.389,385.639 26.950,385.516 26.583 C 385.072 25.255,383.576 23.013,382.515 22.083 C 382.201 21.808,381.821 21.471,381.671 21.333 C 380.458 20.223,377.988 18.996,375.917 18.477 C 375.183 18.293,374.321 18.064,374.000 17.969 C 373.234 17.742,364.840 17.651,362.917 17.849 M76.833 20.250 L 76.833 22.667 81.500 22.667 L 86.167 22.667 86.167 37.921 L 86.167 53.175 88.958 53.129 L 91.750 53.083 91.793 37.875 L 91.835 22.667 96.584 22.667 L 101.333 22.667 101.333 20.250 L 101.333 17.833 89.083 17.833 L 76.833 17.833 76.833 20.250 M175.500 35.500 L 175.500 53.167 178.250 53.167 L 181.000 53.167 181.000 45.502 L 181.000 37.837 187.042 37.794 L 193.083 37.750 193.083 35.500 L 193.083 33.250 187.042 33.206 L 181.000 33.163 181.000 27.917 L 181.000 22.671 187.458 22.627 L 193.917 22.583 193.963 20.208 L 194.009 17.833 184.755 17.833 L 175.500 17.833 175.500 35.500 M310.304 18.542 C 310.151 18.932,309.903 19.700,309.752 20.250 C 309.602 20.800,309.344 21.625,309.180 22.083 C 309.015 22.542,308.747 23.479,308.584 24.167 C 308.421 24.854,308.229 25.492,308.158 25.583 C 308.087 25.675,307.866 26.387,307.667 27.167 C 307.468 27.946,307.247 28.658,307.176 28.750 C 307.105 28.842,306.878 29.592,306.672 30.417 C 306.467 31.242,306.237 31.992,306.163 32.083 C 306.089 32.175,305.866 32.887,305.667 33.667 C 305.468 34.446,305.248 35.158,305.178 35.250 C 305.108 35.342,304.874 36.129,304.656 37.000 C 304.439 37.871,304.217 38.621,304.162 38.667 C 304.108 38.712,303.888 39.425,303.674 40.250 C 303.460 41.075,303.235 41.787,303.174 41.833 C 303.113 41.879,302.887 42.592,302.673 43.417 C 302.458 44.242,302.219 45.029,302.143 45.167 C 302.066 45.304,301.848 46.049,301.657 46.822 C 301.467 47.594,301.214 48.419,301.095 48.655 C 300.977 48.891,300.745 49.640,300.581 50.321 C 300.417 51.002,300.182 51.752,300.059 51.988 C 299.457 53.141,299.515 53.167,302.722 53.167 L 305.611 53.167 305.926 51.875 C 306.100 51.165,306.290 50.546,306.348 50.500 C 306.407 50.454,306.631 49.704,306.847 48.833 C 307.063 47.962,307.287 47.212,307.344 47.167 C 307.401 47.121,307.620 46.371,307.829 45.500 C 308.039 44.629,308.275 43.845,308.355 43.758 C 308.435 43.671,308.500 43.465,308.500 43.300 C 308.500 43.017,308.806 43.000,313.750 43.000 C 317.454 43.000,319.000 43.054,319.000 43.183 C 319.000 43.284,319.107 43.603,319.239 43.891 C 319.370 44.180,319.640 45.011,319.839 45.738 C 320.038 46.464,320.267 47.177,320.348 47.321 C 320.430 47.465,320.653 48.221,320.846 49.000 C 321.038 49.779,321.253 50.492,321.325 50.583 C 321.396 50.675,321.585 51.294,321.745 51.958 L 322.036 53.167 325.018 53.167 C 327.002 53.167,328.000 53.108,328.000 52.990 C 328.000 52.670,327.615 51.252,327.505 51.167 C 327.445 51.121,327.223 50.408,327.010 49.583 C 326.797 48.758,326.568 48.008,326.502 47.917 C 326.435 47.825,326.212 47.112,326.006 46.333 C 325.800 45.554,325.575 44.842,325.505 44.750 C 325.436 44.658,325.247 44.021,325.085 43.333 C 324.924 42.646,324.694 41.858,324.573 41.583 C 324.453 41.308,324.189 40.446,323.987 39.667 C 323.785 38.887,323.562 38.175,323.491 38.083 C 323.420 37.992,323.199 37.279,323.000 36.500 C 322.801 35.721,322.581 35.008,322.510 34.917 C 322.439 34.825,322.293 34.375,322.186 33.917 C 322.011 33.173,321.230 30.566,320.564 28.500 C 320.431 28.087,320.131 27.037,319.897 26.167 C 319.663 25.296,319.415 24.508,319.346 24.417 C 319.278 24.325,319.091 23.725,318.932 23.083 C 318.772 22.442,318.537 21.654,318.410 21.333 C 318.282 21.012,318.058 20.300,317.911 19.750 C 317.765 19.200,317.566 18.544,317.469 18.292 L 317.293 17.833 313.938 17.834 L 310.583 17.835 310.304 18.542 M215.963 22.612 C 217.135 23.191,219.167 24.976,219.167 25.427 C 219.167 25.530,219.308 25.743,219.480 25.899 C 219.653 26.055,219.926 26.536,220.087 26.966 C 220.248 27.397,220.448 27.837,220.531 27.942 C 220.815 28.306,221.494 31.051,221.524 31.957 C 221.526 32.026,221.601 32.171,221.690 32.278 C 221.868 32.492,221.917 38.230,221.743 38.512 C 221.683 38.608,221.600 38.926,221.559 39.219 C 221.379 40.489,220.769 42.595,220.320 43.500 C 220.052 44.040,219.833 44.519,219.833 44.566 C 219.833 45.205,217.458 47.630,216.171 48.304 C 214.528 49.165,210.710 49.421,210.175 48.705 C 210.124 48.638,209.708 48.398,209.250 48.171 C 204.302 45.723,202.206 35.952,204.965 28.189 C 205.238 27.422,205.526 26.747,205.605 26.689 C 205.685 26.631,205.897 26.295,206.076 25.944 C 207.823 22.513,212.540 20.923,215.963 22.612 M144.236 22.314 C 144.335 22.392,144.829 22.589,145.333 22.752 C 148.029 23.623,149.412 26.876,148.583 30.396 C 148.155 32.214,147.237 33.334,145.451 34.217 C 144.005 34.931,141.910 35.237,139.833 35.037 L 138.583 34.917 138.540 28.782 C 138.490 21.837,138.413 22.230,139.854 22.113 C 141.112 22.010,144.019 22.144,144.236 22.314 M245.223 22.595 C 250.269 24.582,249.754 32.167,244.467 33.746 C 243.923 33.908,242.573 34.050,240.958 34.114 L 238.333 34.219 238.336 28.401 C 238.337 25.201,238.395 22.494,238.464 22.386 C 238.822 21.823,243.641 21.972,245.223 22.595 M344.045 22.294 C 344.158 22.383,344.643 22.584,345.123 22.741 C 349.089 24.034,349.511 30.412,345.800 32.965 C 344.686 33.732,343.446 34.004,340.542 34.117 L 338.000 34.217 338.003 28.400 C 338.004 25.201,338.061 22.495,338.130 22.386 C 338.369 22.011,343.585 21.929,344.045 22.294 M372.302 22.398 C 372.732 22.525,373.525 22.757,374.065 22.913 C 375.026 23.192,376.479 23.979,377.006 24.506 C 377.151 24.651,377.416 24.878,377.593 25.011 C 378.620 25.774,379.992 28.224,380.399 30.021 C 380.553 30.697,380.755 31.493,380.849 31.789 C 381.706 34.494,380.269 42.906,378.731 44.182 C 378.604 44.288,378.500 44.465,378.500 44.575 C 378.500 44.848,376.466 46.839,375.884 47.137 C 375.627 47.268,375.304 47.472,375.167 47.590 C 375.029 47.708,374.392 47.967,373.750 48.165 C 373.108 48.363,372.403 48.613,372.183 48.721 C 371.919 48.850,370.702 48.917,368.600 48.917 L 365.417 48.917 365.374 35.708 L 365.331 22.500 365.707 22.497 C 365.914 22.496,366.196 22.422,366.333 22.333 C 366.729 22.078,371.390 22.128,372.302 22.398 M314.206 25.263 C 314.268 25.362,314.517 26.337,314.761 27.430 C 315.004 28.523,315.260 29.492,315.329 29.583 C 315.398 29.675,315.586 30.313,315.748 31.000 C 315.909 31.688,316.140 32.475,316.260 32.750 C 316.380 33.025,316.644 33.887,316.846 34.667 C 317.048 35.446,317.267 36.158,317.333 36.250 C 317.398 36.342,317.541 36.792,317.650 37.250 C 317.759 37.708,317.888 38.215,317.935 38.375 C 318.017 38.647,317.741 38.667,313.743 38.667 C 309.833 38.667,309.473 38.643,309.570 38.391 C 309.628 38.240,309.797 37.621,309.946 37.016 C 310.094 36.411,310.273 35.842,310.343 35.750 C 310.414 35.658,310.630 34.946,310.824 34.167 C 311.018 33.387,311.248 32.600,311.335 32.417 C 311.422 32.233,311.649 31.483,311.839 30.750 C 312.029 30.017,312.253 29.267,312.336 29.083 C 312.419 28.900,312.643 27.962,312.835 27.000 C 313.026 26.037,313.248 25.130,313.328 24.983 C 313.407 24.836,313.529 24.348,313.599 23.899 L 313.725 23.083 313.910 24.083 C 314.012 24.633,314.145 25.164,314.206 25.263 M157.667 39.167 L 157.667 41.167 164.083 41.167 L 170.500 41.167 170.500 39.167 L 170.500 37.167 164.083 37.167 L 157.667 37.167 157.667 39.167 M394.917 44.500 C 394.860 44.592,394.612 44.668,394.365 44.670 C 393.189 44.680,391.743 45.808,391.058 47.250 C 389.129 51.314,393.450 55.565,397.500 53.587 C 401.355 51.705,400.770 45.387,396.680 44.733 C 396.302 44.672,395.952 44.558,395.903 44.478 C 395.780 44.279,395.043 44.295,394.917 44.500 M396.368 46.173 C 397.248 46.418,398.230 47.452,398.501 48.419 C 399.401 51.635,395.450 53.827,393.060 51.438 C 390.756 49.133,393.172 45.286,396.368 46.173 M393.500 49.167 L 393.500 51.500 394.167 51.500 L 394.833 51.500 394.833 50.833 C 394.833 50.086,395.227 49.892,395.425 50.542 C 395.638 51.240,396.009 51.500,396.792 51.500 L 397.532 51.500 397.081 50.732 L 396.631 49.963 396.982 49.488 C 398.064 48.025,397.157 46.833,394.960 46.833 L 393.500 46.833 393.500 49.167 M395.736 48.101 C 396.130 48.252,396.056 48.779,395.625 48.895 C 394.954 49.075,394.833 49.014,394.833 48.500 C 394.833 47.986,395.114 47.862,395.736 48.101 " stroke="none" fill="#4e4640" fill-rule="evenodd"></path><path id="path2" d="M47.372 14.333 C 47.372 14.654,47.406 14.785,47.448 14.625 C 47.490 14.465,47.490 14.202,47.448 14.042 C 47.406 13.881,47.372 14.012,47.372 14.333 M39.708 16.615 C 39.869 16.657,40.131 16.657,40.292 16.615 C 40.452 16.573,40.321 16.539,40.000 16.539 C 39.679 16.539,39.548 16.573,39.708 16.615 M5.460 23.785 C 5.668 23.824,5.968 23.823,6.127 23.781 C 6.286 23.739,6.117 23.707,5.750 23.709 C 5.383 23.711,5.253 23.745,5.460 23.785 M61.042 23.948 C 61.202 23.990,61.465 23.990,61.625 23.948 C 61.785 23.906,61.654 23.872,61.333 23.872 C 61.012 23.872,60.881 23.906,61.042 23.948 M3.125 47.623 C 3.698 47.656,4.635 47.656,5.208 47.623 C 5.781 47.591,5.313 47.564,4.167 47.564 C 3.021 47.564,2.552 47.591,3.125 47.623 M23.709 57.583 C 23.711 57.950,23.745 58.080,23.785 57.873 C 23.824 57.666,23.823 57.366,23.781 57.206 C 23.739 57.047,23.707 57.217,23.709 57.583 " stroke="none" fill="#009999" fill-rule="evenodd"></path><path id="path3" d="M4.333 0.333 C 4.333 0.425,4.483 0.500,4.667 0.500 C 4.850 0.500,5.000 0.425,5.000 0.333 C 5.000 0.242,4.850 0.167,4.667 0.167 C 4.483 0.167,4.333 0.242,4.333 0.333 " stroke="none" fill="#ff0000" fill-rule="evenodd"></path><path id="path4" d="M5.917 1.654 C 4.054 2.138,1.901 4.115,1.391 5.809 C 1.125 6.692,1.240 23.504,1.513 23.674 C 1.617 23.739,15.626 23.738,16.875 23.673 C 16.944 23.670,17.000 22.857,17.000 21.867 C 17.000 20.877,17.070 19.995,17.155 19.908 C 17.240 19.821,17.447 19.403,17.613 18.979 C 18.234 17.401,19.253 16.873,21.833 16.794 L 23.250 16.750 23.246 10.583 C 23.243 7.192,23.195 3.817,23.138 3.083 L 23.034 1.750 21.559 1.661 C 19.185 1.517,6.464 1.512,5.917 1.654 M27.792 1.635 C 27.160 1.687,27.075 1.820,27.131 2.667 C 27.140 2.804,27.198 5.992,27.261 9.750 C 27.341 14.492,27.433 16.624,27.563 16.717 C 27.666 16.790,28.537 16.808,29.500 16.758 C 30.462 16.707,33.912 16.651,37.167 16.632 C 41.756 16.606,43.133 16.550,43.304 16.383 C 43.479 16.211,43.506 15.419,43.436 12.541 C 43.276 5.951,43.143 1.754,43.093 1.704 C 43.024 1.636,28.570 1.571,27.792 1.635 M47.408 1.670 C 47.194 1.745,47.177 2.545,47.277 7.753 C 47.340 11.051,47.397 14.350,47.404 15.083 L 47.417 16.417 49.250 16.515 C 51.656 16.643,52.335 16.971,52.928 18.292 C 53.062 18.590,53.230 18.833,53.302 18.833 C 53.760 18.833,54.139 20.320,54.056 21.792 C 53.999 22.795,54.032 23.334,54.155 23.409 C 54.256 23.472,54.298 23.589,54.248 23.670 C 54.081 23.941,55.225 23.997,59.750 23.939 C 62.225 23.907,65.323 23.871,66.634 23.857 L 69.018 23.833 68.982 14.154 L 68.946 4.476 68.472 3.821 C 68.211 3.461,67.926 3.167,67.839 3.167 C 67.751 3.167,67.545 3.024,67.381 2.851 C 67.218 2.677,66.633 2.346,66.083 2.116 L 65.083 1.698 56.369 1.641 C 51.576 1.609,47.543 1.622,47.408 1.670 M1.394 29.215 C 1.452 30.151,1.509 33.681,1.520 37.060 C 1.531 40.439,1.578 43.345,1.623 43.518 C 1.728 43.917,16.807 44.023,16.862 43.625 C 17.003 42.623,16.909 27.728,16.762 27.626 C 16.664 27.558,13.142 27.504,8.936 27.507 L 1.289 27.513 1.394 29.215 M54.156 27.875 C 54.035 30.247,54.229 43.770,54.385 43.870 C 54.494 43.940,57.883 43.979,61.917 43.957 L 69.250 43.917 69.246 42.000 C 69.243 40.946,69.224 37.290,69.204 33.875 L 69.167 27.667 61.667 27.667 C 55.783 27.667,54.164 27.712,54.156 27.875 M7.417 47.487 C 6.958 47.560,5.496 47.624,4.167 47.629 L 1.750 47.640 1.753 55.612 C 1.756 63.300,1.791 64.725,1.984 65.083 C 2.033 65.175,2.092 65.370,2.115 65.516 C 2.237 66.294,2.919 67.408,3.827 68.314 L 4.850 69.333 11.467 69.370 C 24.639 69.443,23.823 69.460,23.936 69.105 C 23.991 68.932,23.990 68.106,23.933 67.270 C 23.876 66.434,23.813 63.176,23.792 60.030 C 23.769 56.398,23.693 54.263,23.586 54.183 C 23.493 54.114,22.625 54.049,21.658 54.040 C 19.940 54.023,19.880 54.009,19.041 53.444 C 18.569 53.126,18.122 52.840,18.049 52.808 C 17.842 52.717,17.228 51.787,17.074 51.330 C 16.998 51.103,16.957 50.193,16.983 49.308 C 17.036 47.537,17.002 47.480,15.897 47.500 C 15.633 47.505,13.804 47.475,11.833 47.432 C 9.862 47.390,7.875 47.415,7.417 47.487 M54.342 47.833 C 54.271 47.879,54.160 48.731,54.094 49.727 C 53.945 51.994,53.661 52.620,52.540 53.149 C 52.105 53.353,51.620 53.591,51.461 53.677 C 51.301 53.763,50.428 53.833,49.520 53.833 C 47.486 53.833,47.649 53.435,47.761 58.133 C 47.810 60.214,47.866 63.567,47.884 65.583 L 47.918 69.250 48.834 69.355 C 49.338 69.413,53.314 69.451,57.670 69.439 L 65.591 69.417 66.504 68.847 C 67.824 68.024,68.519 67.266,69.347 65.750 C 69.693 65.116,69.705 64.954,69.601 62.417 C 69.541 60.950,69.447 57.087,69.392 53.833 C 69.338 50.579,69.258 47.879,69.215 47.833 C 69.173 47.788,65.838 47.750,61.804 47.750 C 57.771 47.750,54.413 47.788,54.342 47.833 M33.667 53.991 L 27.750 54.083 27.792 61.417 C 27.815 65.450,27.868 68.900,27.909 69.083 C 27.984 69.411,28.122 69.417,35.951 69.415 L 43.917 69.414 43.929 66.582 C 43.936 65.024,43.898 61.538,43.846 58.833 L 43.750 53.917 41.667 53.907 C 40.521 53.902,36.921 53.939,33.667 53.991 " stroke="none" fill="#25e5ce" fill-rule="evenodd"></path></g></svg>